<?xml version="1.0" standalone="no"?>
<!DOCTYPE svg PUBLIC "-//W3C//DTD SVG 20010904//EN"
 "http://www.w3.org/TR/2001/REC-SVG-20010904/DTD/svg10.dtd">
<svg version="1.0" xmlns="http://www.w3.org/2000/svg"
 width="1620.000000pt" height="1620.000000pt" viewBox="0 0 1620.000000 1620.000000"
 preserveAspectRatio="xMidYMid meet">

<g transform="translate(0.000000,1620.000000) scale(0.100000,-0.100000)"
fill="#000000" stroke="none">
<path d="M7263 15561 c-304 -37 -555 -70 -559 -74 -6 -6 167 -1482 176 -1496
3 -5 73 -1 155 10 83 10 158 19 168 19 23 0 22 18 -13 305 -16 132 -26 243
-22 246 4 3 157 23 340 44 182 22 336 42 342 45 10 6 -16 260 -28 271 -4 3
-161 -13 -350 -35 -339 -41 -343 -42 -347 -21 -13 64 -44 370 -37 375 4 4 174
26 377 49 204 24 378 45 388 48 16 4 18 12 13 46 -3 23 -10 86 -17 140 -7 60
-16 97 -23 96 -6 -1 -260 -31 -563 -68z"/>
<path d="M9836 15481 c-14 -45 -396 -1531 -396 -1538 0 -10 319 -93 324 -84 5
7 391 1501 398 1535 3 16 -17 24 -159 61 -142 36 -163 40 -167 26z"/>
<path d="M10540 15268 c-47 -109 -539 -1483 -533 -1489 11 -9 283 -109 298
-109 7 0 17 12 23 28 22 61 521 1429 531 1453 l10 27 -155 56 c-85 31 -157 56
-160 56 -2 0 -9 -10 -14 -22z"/>
<path d="M8176 15237 c-3 -23 -19 -192 -36 -376 -33 -353 -32 -416 5 -521 65
-187 258 -298 495 -288 110 6 185 30 256 85 l46 35 -7 -70 -7 -69 129 -12 c70
-6 143 -14 161 -17 19 -3 32 -1 32 6 0 18 99 1072 105 1116 l6 41 -168 15
c-92 9 -169 15 -170 14 -1 -1 -14 -126 -28 -277 -14 -150 -30 -303 -36 -338
-20 -126 -84 -207 -185 -237 -98 -28 -217 2 -266 67 -57 76 -59 124 -24 496
14 142 26 276 28 298 l3 40 -120 12 c-66 6 -141 14 -166 17 l-47 5 -6 -42z"/>
<path d="M11762 14460 c-74 -26 -111 -51 -171 -115 -88 -93 -127 -207 -110
-320 19 -117 81 -215 274 -425 108 -118 160 -190 174 -243 11 -39 11 -50 -5
-82 -27 -57 -66 -77 -139 -72 -140 10 -335 158 -457 347 -26 41 -53 90 -59
108 -6 17 -15 32 -19 32 -7 0 -225 -133 -239 -146 -2 -2 4 -22 13 -45 69 -173
314 -416 519 -517 139 -67 178 -77 312 -77 159 1 212 20 306 114 84 85 121
157 127 254 9 151 -50 255 -306 532 -156 169 -185 247 -121 320 62 70 150 69
279 -2 84 -47 232 -195 284 -285 21 -38 43 -68 48 -68 17 0 228 151 228 163 0
27 -105 172 -177 245 -132 133 -305 240 -455 282 -96 27 -232 27 -306 0z"/>
<path d="M4604 14371 c-53 -38 -137 -129 -160 -172 -10 -19 -25 -59 -33 -91
l-16 -56 -35 59 c-19 32 -39 59 -45 59 -23 -1 -260 -158 -259 -173 2 -20 596
-977 607 -977 5 0 71 39 148 86 l138 85 -51 82 c-304 485 -303 483 -303 582 1
52 6 80 22 110 25 49 108 128 158 152 25 12 34 22 30 32 -10 26 -150 250 -156
251 -3 0 -24 -13 -45 -29z"/>
<path d="M5913 14099 c-86 -16 -152 -74 -172 -154 -32 -127 76 -265 206 -265
52 0 135 41 166 81 57 76 59 170 7 252 -44 70 -120 101 -207 86z"/>
<path d="M12945 13540 c-54 -55 -100 -100 -104 -100 -3 0 -33 27 -67 61 l-61
60 -89 -97 -89 -96 63 -60 c56 -52 62 -61 50 -76 -7 -9 -87 -95 -178 -190 -91
-95 -182 -198 -203 -228 -78 -116 -87 -239 -27 -362 62 -126 248 -281 342
-286 30 -1 32 2 78 110 l47 112 -53 22 c-57 23 -110 74 -120 115 -3 14 -3 41
1 61 7 38 30 66 258 303 l118 123 98 -96 c54 -53 102 -96 107 -96 5 0 49 39
97 88 l87 87 -105 105 -105 105 96 96 c53 53 95 101 93 107 -2 5 -56 60 -120
121 l-116 110 -98 -99z"/>
<path d="M3625 13613 c-197 -44 -373 -184 -463 -369 -44 -89 -57 -149 -57
-254 0 -107 14 -166 61 -260 47 -95 119 -177 205 -236 182 -124 383 -135 594
-34 149 72 305 221 369 352 29 61 56 158 56 204 0 35 1 35 -186 50 l-81 7 -6
-47 c-13 -95 -96 -211 -196 -275 -60 -39 -159 -65 -214 -56 -48 8 -129 43
-125 55 2 5 148 137 326 294 177 157 322 290 322 294 0 14 -78 101 -130 146
-65 56 -150 101 -225 121 -55 14 -202 19 -250 8z m185 -300 c29 -16 52 -32 52
-36 0 -11 -411 -377 -423 -377 -13 0 -49 108 -49 148 0 87 51 182 125 235 63
44 99 55 176 56 54 1 77 -4 119 -26z"/>
<path d="M13381 12601 l-60 -118 52 -22 c107 -44 230 -158 282 -260 9 -19 19
-60 22 -91 6 -64 -14 -115 -64 -162 l-29 -28 -104 140 c-120 164 -222 265
-306 305 -83 40 -185 41 -266 3 -80 -37 -150 -109 -178 -184 -18 -48 -21 -74
-18 -141 4 -72 10 -93 46 -165 54 -108 118 -187 193 -237 66 -44 113 -61 173
-61 l39 0 -56 -41 c-32 -22 -57 -42 -57 -45 0 -17 185 -252 194 -247 70 42
603 452 638 492 153 171 154 385 1 613 -105 159 -274 303 -418 358 -24 9 -27
5 -84 -109z m-174 -530 c22 -16 79 -82 128 -147 l88 -118 -34 -29 c-68 -58
-121 -69 -204 -40 -88 30 -185 151 -185 232 0 108 118 167 207 102z"/>
<path d="M2686 12634 c-105 -25 -184 -72 -271 -159 -124 -123 -187 -272 -171
-397 4 -27 4 -48 1 -48 -3 0 -26 15 -52 34 l-47 34 -93 -126 c-51 -70 -92
-130 -91 -134 5 -14 1270 -938 1278 -933 11 7 190 254 190 263 0 5 -94 78
-210 162 -115 85 -210 157 -210 161 0 3 17 9 38 13 143 24 303 186 363 367 33
102 34 245 1 341 -100 292 -443 491 -726 422z m219 -353 c78 -36 143 -95 180
-162 26 -47 30 -64 30 -134 0 -63 -5 -89 -23 -122 -32 -60 -77 -109 -131 -141
-40 -24 -57 -27 -131 -27 -75 0 -92 4 -144 30 -71 36 -145 105 -177 166 -33
63 -34 184 -1 251 26 52 90 122 135 144 76 40 169 38 262 -5z"/>
<path d="M13922 11470 c-323 -87 -507 -386 -438 -711 32 -147 124 -312 223
-398 73 -63 179 -111 261 -118 l69 -6 6 108 c4 60 7 127 7 150 l0 42 -45 6
c-105 15 -191 94 -226 209 -47 155 22 293 185 369 135 63 250 46 347 -51 99
-98 124 -219 69 -335 -13 -27 -24 -53 -24 -57 -1 -4 51 -46 114 -92 130 -95
125 -95 173 -8 79 146 74 349 -13 523 -122 242 -307 374 -540 385 -74 3 -111
0 -168 -16z"/>
<path d="M1940 11364 c-130 -35 -249 -115 -329 -222 -213 -283 -211 -638 3
-856 198 -200 499 -243 735 -104 78 47 179 152 228 239 157 278 132 582 -66
778 -147 147 -384 215 -571 165z m251 -355 c183 -84 247 -257 157 -421 -81
-149 -241 -195 -404 -119 -130 61 -197 154 -198 277 -1 62 3 79 34 139 80 157
237 204 411 124z"/>
<path d="M14577 10265 c-423 -106 -770 -195 -773 -198 -4 -4 25 -130 67 -288
l9 -36 144 35 144 36 96 -58 c53 -32 96 -60 96 -63 0 -2 -76 -104 -168 -226
-92 -122 -171 -227 -175 -234 -7 -11 79 -381 92 -394 3 -4 112 130 241 298
129 168 246 318 261 335 l25 31 293 -172 c161 -95 294 -171 296 -169 2 2 -18
89 -44 193 l-47 190 -280 178 c-153 98 -280 181 -282 185 -1 4 194 56 433 116
255 64 435 113 435 120 -1 31 -77 310 -85 312 -6 1 -356 -85 -778 -191z"/>
<path d="M766 10167 c-24 -84 -75 -277 -73 -277 1 0 351 -94 777 -209 426
-115 776 -208 777 -207 4 4 90 326 87 326 -4 0 -1526 410 -1541 415 -7 2 -18
-17 -27 -48z"/>
<path d="M1411 9425 c-228 -42 -406 -224 -455 -467 -65 -318 96 -624 377 -717
301 -100 586 10 727 280 65 126 84 210 85 379 0 126 -3 154 -23 212 -22 62
-94 188 -108 188 -3 0 -52 -34 -109 -75 l-103 -75 34 -68 c109 -213 6 -498
-195 -538 -26 -5 -31 -3 -31 12 0 11 20 197 45 414 25 217 46 406 47 420 3 23
-1 26 -62 36 -85 15 -139 15 -229 -1z m29 -594 c-17 -146 -32 -266 -34 -269
-10 -9 -74 20 -109 49 -20 17 -49 52 -65 77 -24 42 -27 56 -27 142 0 84 3 101
27 146 41 78 109 128 191 143 34 5 43 4 45 -9 1 -8 -11 -134 -28 -279z"/>
<path d="M14150 8264 c0 -9 -14 -177 -31 -373 -34 -395 -34 -511 1 -646 56
-218 190 -389 374 -479 122 -59 181 -71 361 -70 147 0 166 2 241 27 268 89
458 340 503 662 11 77 71 758 67 762 -1 1 -323 29 -716 62 -393 33 -734 63
-757 66 -35 4 -43 2 -43 -11z m748 -403 c243 -21 444 -40 447 -43 9 -9 -25
-360 -41 -423 -44 -179 -167 -305 -330 -340 -89 -19 -137 -19 -231 1 -145 30
-247 104 -307 225 -52 104 -62 179 -47 367 19 244 20 252 45 252 11 -1 220
-18 464 -39z"/>
<path d="M894 8034 c3 -55 9 -127 13 -161 l6 -63 386 -125 c212 -70 397 -130
410 -134 21 -6 -34 -37 -355 -200 -208 -106 -381 -195 -383 -197 -5 -5 21
-328 28 -336 6 -7 1098 556 1116 574 9 8 -23 340 -32 348 -6 5 -1056 350
-1172 385 l-24 7 7 -98z"/>
<path d="M1949 6773 c-29 -49 -59 -98 -66 -110 -13 -20 -11 -23 31 -54 133
-95 200 -324 137 -466 -21 -47 -98 -133 -119 -133 -4 0 -62 188 -128 418
l-121 417 -42 -3 c-60 -4 -163 -45 -242 -98 -171 -113 -258 -291 -246 -504 19
-351 275 -613 597 -613 384 1 652 310 600 694 -14 101 -59 243 -103 319 -53
93 -187 220 -233 220 -7 0 -36 -39 -65 -87z m-295 -539 c42 -144 76 -269 76
-278 0 -21 -49 -21 -119 0 -180 53 -262 314 -143 456 25 29 102 91 108 86 1
-2 36 -121 78 -264z"/>
<path d="M14188 6595 c-95 -31 -205 -108 -270 -189 -127 -159 -203 -402 -178
-576 9 -63 38 -156 58 -188 9 -14 16 -11 173 61 l76 35 -18 54 c-47 135 3 336
106 427 52 45 106 70 171 77 50 6 57 5 51 -9 -35 -91 -269 -828 -265 -832 3
-4 39 -18 79 -32 110 -39 267 -44 374 -12 96 28 173 77 246 157 69 74 109 142
145 247 25 70 28 95 28 205 1 105 -3 136 -22 190 -63 182 -183 304 -366 373
-69 25 -98 30 -196 34 -102 3 -124 0 -192 -22z m486 -475 c76 -136 12 -336
-130 -405 -49 -24 -180 -34 -172 -14 3 8 44 132 92 277 l88 263 45 -33 c27
-20 58 -55 77 -88z"/>
<path d="M2051 5540 c-234 -50 -459 -213 -554 -402 -59 -116 -80 -219 -75
-357 9 -212 39 -285 317 -773 l152 -268 27 14 c108 56 1288 728 1290 735 2 7
-301 552 -366 656 -110 178 -285 319 -467 375 -79 25 -251 35 -324 20z m301
-359 c133 -46 210 -126 342 -358 52 -92 92 -171 88 -174 -19 -19 -806 -457
-813 -453 -16 9 -184 320 -205 380 -66 181 -26 355 109 480 59 55 147 106 222
130 62 20 192 17 257 -5z"/>
<path d="M13412 5247 c-5 -7 -44 -74 -87 -151 -71 -125 -77 -140 -65 -160 11
-18 728 -954 751 -979 4 -5 43 55 87 133 l80 142 -259 336 c-143 185 -255 338
-250 340 5 2 185 -19 399 -47 214 -28 400 -51 414 -51 22 0 36 19 107 146 46
80 81 147 79 150 -3 2 -272 35 -599 74 -327 38 -606 72 -621 74 -14 3 -30 0
-36 -7z"/>
<path d="M12977 4354 c-206 -50 -425 -246 -511 -461 -27 -65 -45 -178 -38
-237 l4 -35 122 5 c66 3 126 7 132 9 7 2 13 32 16 67 5 89 45 167 127 249 49
49 81 71 124 87 70 27 157 28 209 4 l36 -17 -290 -335 -290 -335 55 -50 c206
-188 468 -222 696 -93 119 68 245 218 295 350 88 232 30 470 -155 643 -149
139 -347 194 -532 149z m431 -553 c22 -64 15 -142 -19 -209 -54 -109 -152
-173 -263 -171 -56 0 -141 28 -141 46 0 6 83 106 184 222 l183 212 22 -33 c13
-18 28 -48 34 -67z"/>
<path d="M3210 3380 l-534 -541 125 -124 124 -125 534 541 534 541 -125 124
-124 125 -534 -541z"/>
<path d="M12012 3504 c-68 -58 -122 -110 -120 -114 2 -5 237 -282 522 -615
517 -603 519 -605 540 -587 12 10 69 60 129 111 l107 93 -57 67 c-32 36 -267
311 -523 609 -255 298 -467 542 -470 542 -3 0 -61 -48 -128 -106z"/>
<path d="M3826 2797 c-82 -441 -151 -807 -153 -813 -4 -12 266 -204 286 -204
15 0 1411 850 1411 859 0 13 -281 203 -293 198 -7 -2 -72 -43 -144 -91 -73
-47 -136 -87 -141 -88 -10 -4 -582 391 -582 402 0 5 16 81 35 170 19 89 35
163 35 165 0 6 -288 205 -297 205 -4 0 -75 -361 -157 -803z m542 -180 c95 -65
172 -120 170 -122 -15 -15 -514 -332 -517 -329 -2 2 25 139 60 303 l64 300 25
-16 c14 -9 103 -70 198 -136z"/>
<path d="M11469 3065 c-239 -58 -457 -261 -514 -481 -32 -124 -14 -287 45
-403 143 -284 437 -405 734 -303 221 76 395 247 455 446 25 82 28 224 6 306
-54 205 -228 385 -420 435 -72 18 -229 18 -306 0z m235 -319 c60 -35 113 -97
149 -175 74 -158 20 -319 -135 -397 -173 -88 -366 12 -438 227 -27 77 -22 146
15 218 74 146 272 208 409 127z"/>
<path d="M10350 2937 c-111 -41 -144 -56 -142 -69 2 -13 146 -427 167 -480 6
-15 1 -14 -47 4 -41 17 -75 21 -148 21 -160 0 -299 -62 -415 -185 -178 -188
-201 -444 -62 -712 79 -152 217 -256 387 -292 225 -47 499 68 588 246 22 46
23 46 46 -27 10 -29 20 -53 23 -53 4 0 294 101 300 104 1 1 -116 337 -261 746
-173 492 -267 746 -277 747 -8 1 -79 -22 -159 -50z m3 -797 c69 -26 132 -88
171 -170 28 -58 31 -75 31 -160 0 -79 -4 -102 -22 -135 -76 -141 -255 -201
-395 -132 -94 46 -157 142 -179 274 -10 57 -10 77 4 124 30 100 92 167 189
200 69 24 135 24 201 -1z"/>
<path d="M6504 2241 c-80 -36 -132 -133 -122 -226 19 -167 261 -237 370 -107
58 69 64 188 14 261 -56 80 -173 112 -262 72z"/>
<path d="M8737 2104 c-96 -21 -165 -48 -233 -93 -56 -36 -144 -121 -144 -139
0 -7 115 -108 182 -160 15 -12 22 -9 52 22 128 128 360 153 503 55 38 -27 93
-100 93 -125 0 -6 -188 -34 -417 -63 -230 -29 -426 -55 -437 -58 -17 -5 -18
-12 -12 -74 14 -153 82 -296 187 -395 113 -106 232 -149 404 -148 198 1 339
56 466 183 117 118 169 243 169 412 0 288 -170 509 -446 579 -94 24 -265 26
-367 4z m487 -681 c-15 -105 -95 -198 -196 -228 -126 -37 -256 1 -324 95 -42
59 -53 100 -28 100 11 1 132 16 269 34 138 19 258 34 267 35 14 1 16 -6 12
-36z"/>
<path d="M7806 1894 c-18 -428 -22 -470 -55 -539 -50 -107 -153 -161 -291
-153 l-68 4 -6 -56 c-3 -30 -6 -100 -7 -155 l-1 -100 68 3 c120 5 221 43 294
109 l40 35 0 -74 0 -75 157 -6 c87 -3 159 -4 160 -3 5 4 54 1158 51 1162 -2 2
-79 6 -170 10 l-165 7 -7 -169z"/>
</g>
</svg>
